<?xml version="1.0" encoding="utf-8"?>
<svg viewBox="103.4817 108.8053 508.7731 170.2349" width="508.773px" height="170.235px" xmlns="http://www.w3.org/2000/svg">
  <g id="g8" transform="matrix(1.3333332538604736, 0, 0, -1.3333332538604736, 0, 364.3599853515625)">
    <g id="g10" transform="scale(0.1)">
      <path d="m 1401.37,1372.48 c 0,-172.64 -139.92,-312.7 -312.56,-312.7 -172.755,0 -312.697,140.06 -312.697,312.7 0,172.79 139.942,312.77 312.697,312.77 172.64,0 312.56,-139.98 312.56,-312.77" style="fill:#1496bb;fill-opacity:1;fill-rule:nonzero;stroke:none" id="path12"/>
      <path d="m 1705.59,1713.73 c 0,-90.49 -73.25,-163.7 -163.62,-163.7 -90.29,0 -163.57,73.21 -163.57,163.7 0,90.37 73.28,163.73 163.57,163.73 90.37,0 163.62,-73.36 163.62,-163.73" style="fill:#f26d21;fill-opacity:1;fill-rule:nonzero;stroke:none" id="path14"/>
      <path d="m 2693.22,1657.71 c 0,14.43 12.95,27.36 27.33,27.36 h 51.66 c 14.39,0 27.36,-12.93 27.36,-27.36 v -569.96 c 0,-14.38 -12.97,-27.33 -27.36,-27.33 h -51.66 c -14.38,0 -27.33,12.95 -27.33,27.33 v 569.96" style="fill:#092f40;fill-opacity:1;fill-rule:nonzero;stroke:none" id="path16"/>
      <path d="m 4028.16,1430.19 c -4.41,86.56 -89.94,164.12 -181.01,164.12 -99.9,0 -174.34,-79.35 -180.27,-164.12 z m -174.7,255.2 c 156.7,0 277.73,-116.39 277.73,-273.07 0,-10.49 -1.48,-29.88 -3.03,-40.33 -1.44,-14.87 -13.43,-25.35 -26.81,-25.35 h -436.82 c 5.96,-100 92.13,-185.96 211.37,-185.96 62.67,0 110.53,20.41 148.83,48.89 13.24,9.9 20.93,10.31 30.99,1.03 10.9,-10.12 22.95,-22.11 33.91,-32.28 12.56,-11.49 17.13,-21.16 2.95,-37.11 -30.35,-34.16 -109.63,-82.58 -212.6,-82.58 -180.59,0 -319.65,141.79 -319.65,313.36 0,168.65 120.14,313.4 300.74,313.4" style="fill:#092f40;fill-opacity:1;fill-rule:nonzero;stroke:none" id="path18"/>
      <path d="m 4586.86,1132.87 -43.11,42.73 c -3.3,3.36 -14.04,7.23 -25.04,-2.25 0,0 -22.01,-20.27 -59.39,-20.27 -25.8,0 -46.78,9.38 -62.13,25.24 -15.22,15.91 -24.89,38.82 -25.33,67.4 -0.02,1.56 -0.32,3.04 -0.77,4.49 v 348.96 h 157.78 c 15.86,0 27.32,12.93 27.32,27.37 v 31.6 c 0,15.88 -11.46,27.36 -27.32,27.36 h -157.78 v 158.91 c 0,14.39 -11.48,27.34 -25.91,27.34 l -45.98,-4.94 c -14.38,-1.91 -27.36,-12.97 -27.36,-27.34 V 1685.5 h -74.85 c -15.82,0 -27.32,-11.48 -27.32,-27.36 v -31.6 c 0,-14.44 11.5,-27.37 27.32,-27.37 h 74.85 v -358.34 h 0.64 c 1.19,-43.96 17.66,-77.61 27.64,-94.23 9.02,-14.24 28.55,-42 59.82,-64.16 v -0.04 c 0.45,-0.32 1.04,-0.71 1.6,-1.06 14.55,-8.53 46.8,-22.85 96.78,-22.81 h 0.35 c 51.96,0 96.12,19.1 127.89,49.59 3.34,3.18 5.28,7.68 5.35,12.3 0.06,4.65 -1.81,9.18 -5.05,12.45" style="fill:#092f40;fill-opacity:1;fill-rule:nonzero;stroke:none" id="path20"/>
      <path d="m 2562.65,1684.62 h -56.09 l -6.6,-0.11 c -12.54,0 -20.9,-7.44 -25.04,-15.84 l -196.13,-465.2 -192.72,466.29 c -4.16,8.4 -12.52,15.84 -25.03,15.84 l -6.63,0.12 h -57.63 c -21.6,0 -30.24,-14.42 -21.6,-33.11 l 10.27,-23.51 234.96,-540.9 c 5.22,-12.56 15.43,-27.33 29.77,-27.33 h 28.61 28.63 c 14.36,0 24.57,14.77 29.81,27.33 l 236.75,539.8 10.25,23.52 c 8.66,18.69 0,33.1 -21.58,33.1" style="fill:#092f40;fill-opacity:1;fill-rule:nonzero;stroke:none" id="path22"/>
      <path d="m 3211.04,734.289 c -98.85,0 -174.38,50.859 -174.38,120.59 0,85.801 97.38,111.949 97.38,111.949 h 161.25 c 101.66,0 110.41,-75.566 110.41,-94.469 0,-84.281 -98.81,-138.07 -194.66,-138.07 z m 7.3,857.781 c 87.34,0 158.11,-70.86 158.11,-158.21 0,-87.4 -70.77,-158.12 -158.11,-158.12 -87.21,0 -157.97,70.72 -157.97,158.12 0,87.35 70.76,158.21 157.97,158.21 z m 76.95,-533.54 h -209.24 c -53.75,0 -79.88,37.56 -79.88,73.89 0,58.14 63.93,87.2 63.93,87.2 0,0 68.4,-42.22 148.24,-42.22 153.65,0 257.91,120.64 257.91,252.89 0,98.87 -59.79,156.37 -59.79,156.37 l 79.07,22.44 c 10.08,1.46 15.97,14.53 15.97,24.72 v 24.61 c 0,15.94 -11.62,27.6 -27.61,27.6 h -275.78 c -151.1,0 -245.57,-120.62 -245.57,-255.74 0,-85.74 46.52,-145.33 46.52,-145.33 0,0 -97.34,-56.57 -97.34,-167.04 0,-90.11 68.28,-127.889 106.07,-138.061 V 975.5 c -14.59,-8.672 -84.25,-47.949 -84.25,-135.109 0,-95.922 84.25,-200.493 278.94,-200.493 175.8,0 300.74,114.762 300.74,235.352 0,126.39 -95.88,183.28 -217.93,183.28" style="fill:#092f40;fill-opacity:1;fill-rule:nonzero;stroke:none" id="path24"/>
      <path d="m 2685.33,1854.76 c 0,34.79 27.13,61.9 60.57,61.9 34.88,0 61.95,-27.11 61.95,-61.9 0,-33.49 -27.07,-60.64 -61.95,-60.64 -33.44,0 -60.57,27.15 -60.57,60.64" style="fill:#092f40;fill-opacity:1;fill-rule:nonzero;stroke:none" id="path26"/>
    </g>
  </g>
</svg>
