<svg xmlns="http://www.w3.org/2000/svg" version="1.1" viewBox="-5.0 -10.0 110.0 110.0" fill="currentColor">
  <path d="m65.328 78.344h-31.215c-2.9922-0.003906-5.4219-2.4297-5.4258-5.4258v-45.359c0.003906-2.9961 2.4336-5.4258 5.4258-5.4258h31.215c2.9961 0 5.4219 2.4297 5.4258 5.4258v45.359c-0.003906 2.9961-2.4297 5.4219-5.4258 5.4258zm-31.215-53.754c-0.78516 0-1.5391 0.3125-2.0977 0.87109-0.55469 0.55469-0.86719 1.3086-0.86719 2.0977v45.359c0 0.78516 0.3125 1.543 0.86719 2.0977 0.55859 0.55859 1.3125 0.87109 2.0977 0.87109h31.215c0.78516 0 1.543-0.3125 2.0977-0.87109 0.55859-0.55469 0.87109-1.3125 0.87109-2.0977v-45.359c0-0.78906-0.3125-1.543-0.87109-2.0977-0.55469-0.55859-1.3125-0.87109-2.0977-0.87109z"/>
  <path d="m36.469 49.008h26.688v2.4609h-26.688z"/>
  <path d="m36.469 55.523h26.688v2.4609h-26.688z"/>
  <path d="m36.469 61.539h26.688v2.4609h-26.688z"/>
  <path d="m36.469 67.551h14.566v2.4609h-14.566z"/>
  <path d="m49.902 46.531-7.0586-7.0547c-1.207-1.1172-1.8828-2.6953-1.8594-4.3359 0.046875-1.4297 0.64453-2.7852 1.6641-3.7891 1.9336-1.9922 5.0547-2.2266 7.2617-0.53906 0.96875-0.67969 2.1406-1.0078 3.3203-0.92578 1.3906 0.11328 2.6953 0.72656 3.6719 1.7266 1.0938 1.0117 1.7227 2.4336 1.7344 3.9219 0.011719 1.4922-0.59766 2.9219-1.6758 3.9492l-7.0586 7.0586zm-3.3203-14.387h-0.082031v0.003907c-0.79688 0.035156-1.5547 0.37109-2.1133 0.94141-0.64062 0.61719-0.98438 1.4805-0.94531 2.3672 0.039063 0.89062 0.45312 1.7188 1.1406 2.2812l5.3203 5.3203 5.3203-5.3203c0.64453-0.58203 0.99219-1.4219 0.94922-2.2891-0.074219-0.79688-0.43359-1.5391-1.0078-2.0977-0.55078-0.62891-1.3477-0.99609-2.1836-1.0078-0.83984-0.011719-1.6406 0.33594-2.2109 0.95312l-0.86719 0.86719-0.86719-0.86719h-0.003906c-0.62891-0.69531-1.5117-1.1055-2.4492-1.1406z"/>
</svg>
