<svg xmlns="http://www.w3.org/2000/svg" version="1.1" viewBox="-5.0 -10.0 110.0 110.0" fill="currentColor">
 <path d="m11.516 21.434h17.98v-18.137c0-1.2695 1.0273-2.2969 2.2969-2.2969h56.684c1.2695 0 2.2969 1.0273 2.2969 2.2969v72.973c0 1.2695-1.0273 2.2969-2.2969 2.2969h-17.98v18.137c0 1.2695-1.0273 2.2969-2.2969 2.2969h-56.684c-1.2695 0-2.2969-1.0273-2.2969-2.2969v-72.973c0-1.2695 1.0273-2.2969 2.2969-2.2969zm22.578 0h34.105c1.2695 0 2.2969 1.0273 2.2969 2.2969v50.246h15.684v-68.383h-52.09v15.84zm-10.777 60.113c-1.2695 0-2.2969-1.0273-2.2969-2.2969s1.0273-2.2969 2.2969-2.2969h33.082c1.2695 0 2.2969 1.0273 2.2969 2.2969s-1.0273 2.2969-2.2969 2.2969zm0-12.137c-1.2695 0-2.2969-1.0273-2.2969-2.2969s1.0273-2.2969 2.2969-2.2969h33.082c1.2695 0 2.2969 1.0273 2.2969 2.2969s-1.0273 2.2969-2.2969 2.2969zm0-12.137c-1.2695 0-2.2969-1.0273-2.2969-2.2969 0-1.2695 1.0273-2.2969 2.2969-2.2969h33.082c1.2695 0 2.2969 1.0273 2.2969 2.2969 0 1.2695-1.0273 2.2969-2.2969 2.2969zm8.4766-12.137c-1.2695 0-2.2969-1.0273-2.2969-2.2969 0-1.2695 1.0273-2.2969 2.2969-2.2969h16.125c1.2695 0 2.2969 1.0273 2.2969 2.2969 0 1.2695-1.0273 2.2969-2.2969 2.2969zm34.105-19.117h-52.086v68.383h52.09v-68.383z"/></svg>
